<?xml version="1.0" encoding="utf-8"?>
<!-- Generator: Adobe Illustrator 15.0.0, SVG Export Plug-In  -->
<!DOCTYPE svg PUBLIC "-//W3C//DTD SVG 1.1//EN" "http://www.w3.org/Graphics/SVG/1.1/DTD/svg11.dtd" [
	<!ENTITY ns_flows "http://ns.adobe.com/Flows/1.0/">
]>
<svg version="1.1"
	 xmlns="http://www.w3.org/2000/svg" xmlns:xlink="http://www.w3.org/1999/xlink" xmlns:a="http://ns.adobe.com/AdobeSVGViewerExtensions/3.0/"
	 x="0px" y="0px" width="16px" height="16px" viewBox="0 0.001 16 16" enable-background="new 0 0.001 16 16" xml:space="preserve">
<defs>
</defs>
<path d="M3.001,8c0-0.251,0.073-0.491,0.261-0.668l4.324-4.055c0.391-0.368,1.023-0.369,1.414,0c0.391,0.369,0.391,0.967,0,1.336
	L6.384,7.055H13c0.553,0,1,0.423,1,0.945c0,0.521-0.447,0.945-1,0.945H6.383L9,11.387c0.391,0.369,0.391,0.967,0,1.336
	C8.805,12.908,8.549,13,8.293,13s-0.512-0.092-0.707-0.277L3.262,8.668C3.074,8.49,3.001,8.25,3.001,8z"/>
<rect display="none" opacity="0.2" fill="#E94E47" width="16" height="16"/>
</svg>
