<?xml version="1.0" encoding="utf-8"?>
<!-- Generator: Adobe Illustrator 15.0.0, SVG Export Plug-In  -->
<!DOCTYPE svg PUBLIC "-//W3C//DTD SVG 1.1//EN" "http://www.w3.org/Graphics/SVG/1.1/DTD/svg11.dtd" [
	<!ENTITY ns_flows "http://ns.adobe.com/Flows/1.0/">
]>
<svg version="1.1"
	 xmlns="http://www.w3.org/2000/svg" xmlns:xlink="http://www.w3.org/1999/xlink" xmlns:a="http://ns.adobe.com/AdobeSVGViewerExtensions/3.0/"
	 x="0px" y="0px" width="16px" height="16px" viewBox="0 0.001 16 16" enable-background="new 0 0.001 16 16" xml:space="preserve">
<defs>
</defs>
<path d="M14,8.001c0,3.3-2.7,6-6,6l0,0c-3.3,0-6-2.7-6-6l0,0c0-3.3,2.7-6,6-6l0,0C11.3,2.001,14,4.701,14,8.001L14,8.001z"/>
<path fill="#FFFFFF" stroke="#000000" stroke-width="0.1" stroke-miterlimit="10" d="M10.771,9.661c0.307,0.307,0.307,0.802,0,1.108
	c-0.152,0.153-0.354,0.229-0.554,0.229c-0.201,0-0.401-0.076-0.555-0.229L8,9.107L6.338,10.77c-0.153,0.153-0.354,0.229-0.554,0.229
	c-0.2,0-0.4-0.076-0.554-0.229c-0.306-0.306-0.306-0.801,0-1.108l1.663-1.662L5.23,6.337c-0.306-0.306-0.306-0.802,0-1.108
	c0.306-0.306,0.803-0.306,1.108,0L8,6.891l1.663-1.662c0.307-0.306,0.801-0.306,1.108,0c0.307,0.306,0.307,0.802,0,1.108
	L9.108,7.999L10.771,9.661z"/>
<rect display="none" opacity="0.2" fill="#E94E47" width="16" height="16"/>
</svg>
