<?xml version="1.0" encoding="utf-8"?>
<!-- Generator: Adobe Illustrator 15.0.0, SVG Export Plug-In  -->
<!DOCTYPE svg PUBLIC "-//W3C//DTD SVG 1.1//EN" "http://www.w3.org/Graphics/SVG/1.1/DTD/svg11.dtd" [
	<!ENTITY ns_flows "http://ns.adobe.com/Flows/1.0/">
]>
<svg version="1.1"
	 xmlns="http://www.w3.org/2000/svg" xmlns:xlink="http://www.w3.org/1999/xlink" xmlns:a="http://ns.adobe.com/AdobeSVGViewerExtensions/3.0/"
	 x="0px" y="0px" width="16px" height="16px" viewBox="0 0 16 16" enable-background="new 0 0 16 16" xml:space="preserve">
<defs>
</defs>
<rect display="none" fill="#999999" width="16" height="16"/>
<path fill="#FFFFFF" d="M8,1.999c-3.3,0-6,2.7-6,6s2.7,6,6,6s6-2.7,6-6S11.3,1.999,8,1.999z M10.807,9.624
	c0.158,0.158,0.245,0.367,0.245,0.59s-0.087,0.432-0.245,0.589c-0.157,0.157-0.366,0.244-0.589,0.244
	c-0.223,0-0.432-0.087-0.59-0.244L8,9.175l-1.627,1.627c-0.157,0.158-0.366,0.244-0.589,0.244c-0.222,0-0.431-0.087-0.589-0.244
	c-0.324-0.325-0.324-0.854,0-1.179l1.627-1.627L5.195,6.37c-0.325-0.325-0.325-0.854,0-1.179c0.157-0.158,0.367-0.244,0.589-0.244
	s0.432,0.087,0.589,0.244L8,6.818l1.627-1.627c0.158-0.158,0.367-0.244,0.589-0.244s0.432,0.087,0.589,0.244
	c0.158,0.157,0.245,0.367,0.245,0.589s-0.087,0.432-0.245,0.589L9.179,7.996L10.807,9.624z"/>
<rect display="none" opacity="0.2" fill="#E94E47" width="16" height="16"/>
</svg>
