<?xml version="1.0" encoding="utf-8"?>
<!-- Generator: Adobe Illustrator 15.0.0, SVG Export Plug-In  -->
<!DOCTYPE svg PUBLIC "-//W3C//DTD SVG 1.1//EN" "http://www.w3.org/Graphics/SVG/1.1/DTD/svg11.dtd" [
	<!ENTITY ns_flows "http://ns.adobe.com/Flows/1.0/">
]>
<svg version="1.1"
	 xmlns="http://www.w3.org/2000/svg" xmlns:xlink="http://www.w3.org/1999/xlink" xmlns:a="http://ns.adobe.com/AdobeSVGViewerExtensions/3.0/"
	 x="0px" y="0px" width="16px" height="16px" viewBox="0 0.001 16 16" enable-background="new 0 0.001 16 16" xml:space="preserve">
<defs>
</defs>
<path d="M15.707,9.293C15.287,8.947,13.846,7.32,13,6.546V4.5c0-2-1.947-2.5-2.5-2.5h-2V1.5C8.5,1.224,8.275,1,8,1v0H6.018v0.004
	C6.012,1.004,6.006,1,6,1C5.724,1,5.5,1.224,5.5,1.5V2h-2c-2,0-2.3,1.947-2.3,2.5v8c0,2,1.747,2.401,2.3,2.401
	c0,0,0.234,0.117,3.989,0.099c0.555,0.749,1.641,1,2.011,1c0,0,3.989,0,4,0c2,0,2.5-1.947,2.5-2.5V10
	C16,9.744,15.92,9.469,15.707,9.293z M4.5,14c-2,0-2.5-0.5-2.5-2.5c0,0,0-5.979,0-6c0-1.828,0.418-2.403,2.018-2.488
	C4,4.5,4,4.5,4,4.5v0C4,4.776,4.224,5,4.5,5v0h1.518H8h1.5V4.999c0.275,0,0.5-0.224,0.5-0.499C10,4.475,10,4.43,9.96,3
	C11.578,3.013,12,3.663,12,5.5V6L9,6C8,6,7,7,7,8v6C5.936,14,5.308,14,4.5,14z M15,12.5c0,2-0.5,2.5-2.5,2.5c0,0,0,0-2,0
	S8,14.5,8,12.5c0,0,0-2.98,0-3C8,7.5,8.5,7,10.5,7c1,0,1.5,0,1.5,0s0,1.448,0,2v0.231v0.002C12.106,9.669,12.529,10,13,10
	c0.553,0,2,0,2,0S15,12.473,15,12.5z"/>
<rect display="none" opacity="0.2" fill="#E94E47" width="16" height="16"/>
</svg>
