<?xml version="1.0" encoding="utf-8"?>
<!-- Generator: Adobe Illustrator 15.0.0, SVG Export Plug-In  -->
<!DOCTYPE svg PUBLIC "-//W3C//DTD SVG 1.1//EN" "http://www.w3.org/Graphics/SVG/1.1/DTD/svg11.dtd" [
	<!ENTITY ns_flows "http://ns.adobe.com/Flows/1.0/">
]>
<svg version="1.1"
	 xmlns="http://www.w3.org/2000/svg" xmlns:xlink="http://www.w3.org/1999/xlink" xmlns:a="http://ns.adobe.com/AdobeSVGViewerExtensions/3.0/"
	 x="0px" y="0px" width="16px" height="16px" viewBox="0 0.001 16 16" enable-background="new 0 0.001 16 16" xml:space="preserve">
<defs>
</defs>
<path d="M13,3.048H2c-0.553,0-1,0.193-1,0.746c0,0.552,0.447,0.731,1,0.731v9.521C2,15.152,2.896,16,4,16h7c1.104,0,2-0.848,2-1.953
	V4.525c0.553,0,1-0.18,1-0.731C14,3.241,13.553,3.048,13,3.048z M3.752,13.643V5.452c0-0.413,0.334-0.748,0.748-0.748
	s0.748,0.335,0.748,0.748v8.191c0,0.414-0.334,0.748-0.748,0.748S3.752,14.057,3.752,13.643z M6.752,13.643V5.452
	c0-0.413,0.335-0.748,0.748-0.748s0.748,0.335,0.748,0.748v8.191c0,0.414-0.335,0.748-0.748,0.748S6.752,14.057,6.752,13.643z
	 M9.752,13.643V5.452c0-0.413,0.335-0.748,0.748-0.748s0.748,0.335,0.748,0.748v8.191c0,0.414-0.335,0.748-0.748,0.748
	S9.752,14.057,9.752,13.643z M3.693,2.499C3.445,2.33,3.377,1.994,3.545,1.744C3.592,1.673,4.738,0,7.5,0s3.908,1.673,3.956,1.744
	c0.168,0.252,0.1,0.592-0.152,0.76c-0.094,0.063-0.199,0.092-0.303,0.092c-0.178,0-0.352-0.086-0.457-0.244
	C10.512,2.305,9.648,1.096,7.5,1.096s-3.012,1.209-3.047,1.26C4.281,2.603,3.942,2.668,3.693,2.499z"/>
<rect display="none" opacity="0.2" fill="#E94E47" width="16" height="16"/>
</svg>
