<?xml version="1.0" encoding="utf-8"?>
<!-- Generator: Adobe Illustrator 15.0.0, SVG Export Plug-In  -->
<!DOCTYPE svg PUBLIC "-//W3C//DTD SVG 1.1//EN" "http://www.w3.org/Graphics/SVG/1.1/DTD/svg11.dtd" [
	<!ENTITY ns_flows "http://ns.adobe.com/Flows/1.0/">
]>
<svg version="1.1"
	 xmlns="http://www.w3.org/2000/svg" xmlns:xlink="http://www.w3.org/1999/xlink" xmlns:a="http://ns.adobe.com/AdobeSVGViewerExtensions/3.0/"
	 x="0px" y="0px" width="16px" height="16px" viewBox="0 0.001 16 16" enable-background="new 0 0.001 16 16" xml:space="preserve">
<defs>
</defs>
<path d="M14.707,5.295c-0.474-0.39-3.247-2.411-4-3C10.489,2.124,10.256,2.001,10,2.001H9.99C9.091,1.334,8.11,0.61,7.707,0.294
	C7.489,0.124,7.256,0.001,7,0.001H3.5c-2,0-2.3,1.948-2.3,2.5v9c0,2,1.747,2.5,2.3,2.5c0,0,0,0,0.533,0C4.25,15.587,5.496,16,6,16
	c0,0,6.489,0,6.5,0c2,0,2.5-1.946,2.5-2.499v-7.5C15,5.745,14.92,5.471,14.707,5.295z M2,10.501c0,0,0-6.979,0-7
	c0-2,0.5-2.5,2.5-2.5c1,0,1.5,0,1.5,0s0,0.446,0,1c0,0.327,0,0.689,0,1.022c0,0.425,0,0.8,0,0.978c0,0.553,0.447,1,1,1
	c0.256,0,1.133,0,2,0c1.006,0,2,0,2,0s0,0.899,0,2c0,1.739,0,3.483,0,3.5c0,2-0.5,2.5-2.5,2.5c0,0-3.687,0-4,0
	C2.5,13.001,2,12.501,2,10.501z M14,12.501c0,2-0.5,2.5-2.5,2.5c0,0-2.5,0-4.5,0c-1.286,0-1.742-0.343-1.905-1.001
	C10,14.001,9.493,14.001,9.5,14.001c2,0,2.5-1.947,2.5-2.5v-4.5c1.006,0,2,0,2,0S14,12.474,14,12.501z"/>
<rect display="none" opacity="0.2" fill="#E94E47" width="16" height="16"/>
</svg>
