<?xml version="1.0" encoding="utf-8"?>
<!-- Generator: Adobe Illustrator 15.0.0, SVG Export Plug-In  -->
<!DOCTYPE svg PUBLIC "-//W3C//DTD SVG 1.1//EN" "http://www.w3.org/Graphics/SVG/1.1/DTD/svg11.dtd" [
	<!ENTITY ns_flows "http://ns.adobe.com/Flows/1.0/">
]>
<svg version="1.1"
	 xmlns="http://www.w3.org/2000/svg" xmlns:xlink="http://www.w3.org/1999/xlink" xmlns:a="http://ns.adobe.com/AdobeSVGViewerExtensions/3.0/"
	 x="0px" y="0px" width="16px" height="16px" viewBox="0 0.001 16 16" enable-background="new 0 0.001 16 16" xml:space="preserve">
<defs>
</defs>
<path fill="#FFFFFF" d="M8,0.5C3.858,0.5,0.5,3.858,0.5,8c0,4.142,3.358,7.5,7.5,7.5s7.5-3.358,7.5-7.5C15.5,3.858,12.142,0.5,8,0.5
	"/>
<path fill="#E32219" d="M8,0C3.582,0,0,3.582,0,8c0,4.418,3.582,8,8,8s8-3.582,8-8C16,3.582,12.418,0,8,0 M11.536,10.12
	c0.392,0.392,0.392,1.024,0,1.414c-0.194,0.195-0.451,0.293-0.707,0.293s-0.512-0.098-0.707-0.293L8,9.413l-2.121,2.121
	c-0.195,0.195-0.451,0.293-0.707,0.293s-0.511-0.098-0.707-0.293c-0.39-0.391-0.39-1.023,0-1.414l2.121-2.121L4.465,5.878
	c-0.39-0.391-0.39-1.023,0-1.414c0.391-0.391,1.024-0.391,1.414,0L8,6.585l2.122-2.121c0.392-0.391,1.022-0.391,1.414,0
	s0.392,1.023,0,1.414L9.414,7.999L11.536,10.12z"/>
<rect display="none" opacity="0.2" fill="#E94E47" width="16" height="16"/>
</svg>
