<?xml version="1.0" encoding="utf-8"?>
<!-- Generator: Adobe Illustrator 15.0.0, SVG Export Plug-In  -->
<!DOCTYPE svg PUBLIC "-//W3C//DTD SVG 1.1//EN" "http://www.w3.org/Graphics/SVG/1.1/DTD/svg11.dtd" [
	<!ENTITY ns_flows "http://ns.adobe.com/Flows/1.0/">
]>
<svg version="1.1"
	 xmlns="http://www.w3.org/2000/svg" xmlns:xlink="http://www.w3.org/1999/xlink" xmlns:a="http://ns.adobe.com/AdobeSVGViewerExtensions/3.0/"
	 x="0px" y="0px" width="16px" height="16px" viewBox="0 0.001 16 16" enable-background="new 0 0.001 16 16" xml:space="preserve">
<defs>
</defs>
<path d="M3.5,2C3.225,2,3,2.225,3,2.5v11C3,13.775,3.225,14,3.5,14S4,13.775,4,13.5v-11C4,2.225,3.775,2,3.5,2z"/>
<path d="M11.609,7.688L8,4.201V2.5C8,2.225,7.775,2,7.5,2S7,2.225,7,2.5v2v7v2C7,13.775,7.225,14,7.5,14S8,13.775,8,13.5v-1.699
	l3.609-3.489C11.824,8.141,11.824,7.859,11.609,7.688z"/>
<rect display="none" opacity="0.2" fill="#E94E47" width="16" height="16"/>
</svg>
