<?xml version="1.0" encoding="utf-8"?>
<!-- Generator: Adobe Illustrator 15.0.0, SVG Export Plug-In  -->
<!DOCTYPE svg PUBLIC "-//W3C//DTD SVG 1.1//EN" "http://www.w3.org/Graphics/SVG/1.1/DTD/svg11.dtd" [
	<!ENTITY ns_flows "http://ns.adobe.com/Flows/1.0/">
]>
<svg version="1.1"
	 xmlns="http://www.w3.org/2000/svg" xmlns:xlink="http://www.w3.org/1999/xlink" xmlns:a="http://ns.adobe.com/AdobeSVGViewerExtensions/3.0/"
	 x="0px" y="0px" width="16px" height="16px" viewBox="0 0.001 16 16" enable-background="new 0 0.001 16 16" xml:space="preserve">
<defs>
</defs>
<path d="M14.818,6.001c0,0.2-0.079,0.392-0.222,0.535l-3.267,3.243c-0.295,0.296-0.774,0.296-1.069,0
	c-0.296-0.296-0.295-0.773,0-1.069l1.977-1.954c0,0-4.184-0.371-6.438,3.243c0-5.305,6.439-4.755,6.439-4.755l-1.978-1.954
	c-0.296-0.295-0.296-0.773,0-1.069c0.148-0.148,0.341-0.221,0.534-0.221c0.193,0,0.387,0.073,0.534,0.221l3.267,3.244
	C14.739,5.609,14.818,5.801,14.818,6.001z"/>
<path d="M13,10v1c0,0.551-0.449,1-1,1H5c-0.551,0-1-0.449-1-1V5c0-0.551,0.449-1,1-1h4V3H5C3.9,3,3.1,3.9,3.1,5v6c0,1.1,0.8,2,1.9,2
	h7c1.1,0,2-0.9,2-2v-1H13z"/>
<rect display="none" opacity="0.2" fill="#E94E47" width="16" height="16"/>
</svg>
