<?xml version="1.0" encoding="utf-8"?>
<!-- Generator: Adobe Illustrator 15.0.0, SVG Export Plug-In  -->
<!DOCTYPE svg PUBLIC "-//W3C//DTD SVG 1.1//EN" "http://www.w3.org/Graphics/SVG/1.1/DTD/svg11.dtd" [
	<!ENTITY ns_flows "http://ns.adobe.com/Flows/1.0/">
]>
<svg version="1.1"
	 xmlns="http://www.w3.org/2000/svg" xmlns:xlink="http://www.w3.org/1999/xlink" xmlns:a="http://ns.adobe.com/AdobeSVGViewerExtensions/3.0/"
	 x="0px" y="0px" width="16px" height="16px" viewBox="0 0.001 16 16" enable-background="new 0 0.001 16 16" xml:space="preserve">
<defs>
</defs>
<path d="M13.5,12.001L13.5,12.001C13.482,12.063,13.5,12.001,13.5,12.001z"/>
<path d="M12.917,4.001c-0.12,0-0.509,0-0.834,0c0-1-0.958-2-3.125-2c-0.607,0-3.417,0-4.875,0C2.042,2.001,1,3.085,1,5.001
	c0,0.672,0,6.591,0,7C1,12.554,1.447,13,2,13c0.449,0,9.586,0,10.377,0c0.789,0,1.121-0.994,1.123-0.998
	c0.044-0.155,0.055-0.194,1.492-5.224C15.24,6.001,14.917,4.001,12.917,4.001z M13.811,6.38l-1.457,4.792
	c-0.121,0.472-0.619,0.857-1.105,0.857h-7.61c-0.486,0-0.784-0.385-0.663-0.857L3.937,6.38c0.121-0.471,0.619-0.855,1.105-0.855
	h8.105C13.634,5.525,13.932,5.909,13.811,6.38z"/>
<rect display="none" opacity="0.2" fill="#E94E47" width="16" height="16"/>
</svg>
