<?xml version="1.0" encoding="utf-8"?>
<!-- Generator: Adobe Illustrator 15.0.0, SVG Export Plug-In . SVG Version: 6.00 Build 0)  -->
<!DOCTYPE svg PUBLIC "-//W3C//DTD SVG 1.1//EN" "http://www.w3.org/Graphics/SVG/1.1/DTD/svg11.dtd">
<svg version="1.1" id="Layer_1" xmlns="http://www.w3.org/2000/svg" xmlns:xlink="http://www.w3.org/1999/xlink" x="0px" y="0px"
	 width="16px" height="16px" viewBox="0 0 16 16" enable-background="new 0 0 16 16" xml:space="preserve">
<path d="M1,7C0.448,7,0,6.553,0,6.001v-4c0-0.552,0.448-1,1-1h4c0.552,0,1,0.448,1,1C6,2.553,5.552,3,5,3H2v3.001
	C2,6.553,1.552,7,1,7z"/>
<path d="M15,7c-0.552,0-1-0.447-1-0.999V3h-3c-0.552,0-1-0.447-1-0.999c0-0.552,0.448-1,1-1h4c0.552,0,1,0.448,1,1v4
	C16,6.553,15.552,7,15,7z"/>
<path d="M1,7C0.448,7,0,6.553,0,6.001v-4c0-0.552,0.448-1,1-1h4c0.552,0,1,0.448,1,1C6,2.553,5.552,3,5,3H2v3.001
	C2,6.553,1.552,7,1,7z"/>
<path d="M15,7c-0.552,0-1-0.447-1-0.999V3h-3c-0.552,0-1-0.447-1-0.999c0-0.552,0.448-1,1-1h4c0.552,0,1,0.448,1,1v4
	C16,6.553,15.552,7,15,7z"/>
<path d="M15,15h-4c-0.552,0-1-0.448-1-1s0.448-1,1-1h3v-3c0-0.552,0.448-1,1-1s1,0.448,1,1v4C16,14.552,15.552,15,15,15z"/>
<path d="M5,15H1c-0.552,0-1-0.448-1-1v-4c0-0.552,0.448-1,1-1s1,0.448,1,1v3h3c0.552,0,1,0.448,1,1S5.552,15,5,15z"/>
<path d="M15,15h-4c-0.552,0-1-0.448-1-1s0.448-1,1-1h3v-3c0-0.552,0.448-1,1-1s1,0.448,1,1v4C16,14.552,15.552,15,15,15z"/>
<path d="M5,15H1c-0.552,0-1-0.448-1-1v-4c0-0.552,0.448-1,1-1s1,0.448,1,1v3h3c0.552,0,1,0.448,1,1S5.552,15,5,15z"/>
<rect display="none" opacity="0.2" fill="#E94E47" enable-background="new    " width="16" height="16"/>
</svg>
