<?xml version="1.0" encoding="utf-8"?>
<!-- Generator: Adobe Illustrator 15.0.0, SVG Export Plug-In  -->
<!DOCTYPE svg PUBLIC "-//W3C//DTD SVG 1.1//EN" "http://www.w3.org/Graphics/SVG/1.1/DTD/svg11.dtd" [
	<!ENTITY ns_flows "http://ns.adobe.com/Flows/1.0/">
]>
<svg version="1.1"
	 xmlns="http://www.w3.org/2000/svg" xmlns:xlink="http://www.w3.org/1999/xlink" xmlns:a="http://ns.adobe.com/AdobeSVGViewerExtensions/3.0/"
	 x="0px" y="0px" width="16px" height="16px" viewBox="0 0.001 16 16" enable-background="new 0 0.001 16 16" xml:space="preserve">
<defs>
</defs>
<path d="M8,0.001c-4.417,0-8,3.582-8,8c0,4.419,3.583,8,8,8c4.419,0,8-3.581,8-8C16,3.583,12.419,0.001,8,0.001z M7.98,13.806
	c-0.884,0-1.598-0.715-1.598-1.598S7.097,10.61,7.98,10.61s1.598,0.715,1.598,1.598S8.864,13.806,7.98,13.806z M9.685,7.7
	C9.209,8.192,8.98,8.452,8.98,9.005c0,0.553-0.447,1-1,1s-1-0.447-1-1c0-1.385,0.732-2.142,1.267-2.695
	c0.483-0.5,0.716-0.766,0.716-1.34c0-0.931,0-0.968-0.982-0.968C7,4.001,7,4.02,7,4.996c0,0.552-0.447,1-1,1s-1-0.448-1-1
	c0-0.972,0-2.995,2.98-2.995c2.982,0,2.982,2.08,2.982,2.968C10.963,6.377,10.225,7.141,9.685,7.7z"/>
<rect display="none" opacity="0.2" fill="#E94E47" width="16" height="16"/>
</svg>
