<?xml version="1.0" encoding="utf-8"?>
<!-- Generator: Adobe Illustrator 15.0.0, SVG Export Plug-In  -->
<!DOCTYPE svg PUBLIC "-//W3C//DTD SVG 1.1//EN" "http://www.w3.org/Graphics/SVG/1.1/DTD/svg11.dtd" [
	<!ENTITY ns_flows "http://ns.adobe.com/Flows/1.0/">
]>
<svg version="1.1"
	 xmlns="http://www.w3.org/2000/svg" xmlns:xlink="http://www.w3.org/1999/xlink" xmlns:a="http://ns.adobe.com/AdobeSVGViewerExtensions/3.0/"
	 x="0px" y="0px" width="16px" height="16px" viewBox="0 0.001 16 16" enable-background="new 0 0.001 16 16" xml:space="preserve">
<defs>
</defs>
<circle cx="8" cy="8" r="8"/>
<path fill="#FFFFFF" d="M9.598,4.199c-0.271,0.25-0.596,0.375-0.975,0.375c-0.377,0-0.703-0.125-0.975-0.375
	c-0.27-0.25-0.406-0.553-0.406-0.908c0-0.355,0.137-0.66,0.406-0.912C7.92,2.127,8.246,2,8.623,2c0.379,0,0.703,0.127,0.975,0.379
	C9.865,2.631,10,2.936,10,3.291C10,3.646,9.865,3.949,9.598,4.199z"/>
<path fill="#FFFFFF" d="M8.631,6.143C8.537,6.058,8.407,6.011,8.288,5.953C8.025,5.826,7.726,5.739,7.342,5.739
	c-0.309,0-0.635,0.055-0.982,0.165C6.305,5.922,6.242,5.949,6.188,5.967C6.124,6.11,6.086,6.266,6.086,6.432
	c0,0.111,0.034,0.212,0.063,0.313c0.204,0.017,0.366,0.056,0.452,0.138C6.707,6.986,6.764,7.168,6.764,7.43
	c0,0.014-0.005,0.031-0.005,0.045C6.756,7.61,6.743,7.753,6.711,7.912C6.676,8.086,6.633,8.273,6.58,8.469L6,10.518
	c-0.051,0.215-0.088,0.407-0.111,0.578s-0.035,0.338-0.035,0.502c0,0.421,0.156,0.767,0.467,1.041
	c0.181,0.159,0.416,0.258,0.681,0.325c0.19,0.048,0.392,0.086,0.626,0.086c0.224,0,0.424-0.024,0.614-0.06
	c0.322-0.202,0.547-0.542,0.553-0.948c-0.188-0.019-0.345-0.055-0.435-0.129c-0.121-0.098-0.18-0.282-0.18-0.554
	c0-0.077,0.012-0.19,0.03-0.318c0.008-0.052,0.013-0.099,0.024-0.159c0.035-0.21,0.078-0.397,0.125-0.562l0.578-2.041
	c0.057-0.188,0.096-0.393,0.117-0.617c0.02-0.225,0.031-0.381,0.031-0.471C9.086,6.762,8.932,6.412,8.631,6.143z"/>
<rect display="none" opacity="0.2" fill="#E94E47" width="16" height="16"/>
</svg>
