<?xml version="1.0" encoding="utf-8"?>
<!-- Generator: Adobe Illustrator 15.0.0, SVG Export Plug-In  -->
<!DOCTYPE svg PUBLIC "-//W3C//DTD SVG 1.1//EN" "http://www.w3.org/Graphics/SVG/1.1/DTD/svg11.dtd" [
	<!ENTITY ns_flows "http://ns.adobe.com/Flows/1.0/">
]>
<svg version="1.1"
	 xmlns="http://www.w3.org/2000/svg" xmlns:xlink="http://www.w3.org/1999/xlink" xmlns:a="http://ns.adobe.com/AdobeSVGViewerExtensions/3.0/"
	 x="0px" y="0px" width="16px" height="16px" viewBox="0 0.001 16 16" enable-background="new 0 0.001 16 16" xml:space="preserve">
<defs>
</defs>
<path d="M11.5,7.071V5c0-1.654-1.346-3-3-3h-1c-1.654,0-3,1.346-3,3v2.071C3.639,7.294,3,8.069,3,9v3c0,1.104,0.896,2,2,2h6
	c1.104,0,2-0.896,2-2V9C13,8.069,12.361,7.294,11.5,7.071z M7.266,3.194h1.469c0.811,0,1.469,0.594,1.469,1.322V7H5.797V4.517
	C5.797,3.788,6.456,3.194,7.266,3.194z"/>
<rect display="none" opacity="0.2" fill="#E94E47" width="16" height="16"/>
</svg>
