<?xml version="1.0" encoding="utf-8"?>
<!-- Generator: Adobe Illustrator 15.0.0, SVG Export Plug-In  -->
<!DOCTYPE svg PUBLIC "-//W3C//DTD SVG 1.1//EN" "http://www.w3.org/Graphics/SVG/1.1/DTD/svg11.dtd" [
	<!ENTITY ns_flows "http://ns.adobe.com/Flows/1.0/">
]>
<svg version="1.1"
	 xmlns="http://www.w3.org/2000/svg" xmlns:xlink="http://www.w3.org/1999/xlink" xmlns:a="http://ns.adobe.com/AdobeSVGViewerExtensions/3.0/"
	 x="0px" y="0px" width="16px" height="16px" viewBox="0 0.001 16 16" enable-background="new 0 0.001 16 16" xml:space="preserve">
<defs>
</defs>
<path d="M12.086,14.312H2.623c-0.6,0-1.088-0.472-1.088-1.052V2.74c0-0.58,0.488-1.052,1.088-1.052h9.457
	C12.641,1.687,14.746,3,14.746,3c0-1.654-1.346-3-3-3H3C1.346,0,0,1.346,0,3v10c0,1.654,1.346,3,3,3h8.746c1.654,0,3-1.346,3-3
	C14.746,13,12.643,14.312,12.086,14.312z"/>
<polygon fill="#333333" points="12.746,7.828 12.746,8.172 12.918,8 "/>
<path d="M15.999,8c0,0.25-0.073,0.491-0.261,0.668l-4.324,4.055c-0.391,0.368-1.023,0.369-1.414,0c-0.391-0.369-0.391-0.967,0-1.336
	l2.616-2.442H6C5.447,8.945,5,8.522,5,8c0-0.521,0.447-0.945,1-0.945h6.617L10,4.613c-0.391-0.369-0.391-0.967,0-1.336
	C10.195,3.092,10.451,3,10.707,3s0.512,0.092,0.707,0.277l4.324,4.056C15.926,7.51,15.999,7.75,15.999,8z"/>
<rect display="none" opacity="0.2" fill="#E94E47" width="16" height="16"/>
</svg>
