<?xml version="1.0" encoding="utf-8"?>
<!-- Generator: Adobe Illustrator 15.0.0, SVG Export Plug-In  -->
<!DOCTYPE svg PUBLIC "-//W3C//DTD SVG 1.1//EN" "http://www.w3.org/Graphics/SVG/1.1/DTD/svg11.dtd" [
	<!ENTITY ns_flows "http://ns.adobe.com/Flows/1.0/">
]>
<svg version="1.1"
	 xmlns="http://www.w3.org/2000/svg" xmlns:xlink="http://www.w3.org/1999/xlink" xmlns:a="http://ns.adobe.com/AdobeSVGViewerExtensions/3.0/"
	 x="0px" y="0px" width="16px" height="16px" viewBox="0 0.001 16 16" enable-background="new 0 0.001 16 16" xml:space="preserve">
<defs>
</defs>
<path d="M8,1l6.271,4.876C14.027,5.951,13.771,6,13.5,6c-1.152,0-9.848,0-11,0C2.229,6,1.973,5.951,1.729,5.876L8,1z"/>
<path d="M8,10l6.271,4.876C14.027,14.951,13.771,15,13.5,15c-1.152,0-9.848,0-11,0c-0.271,0-0.527-0.049-0.771-0.124L8,10z"/>
<path d="M15.779,13.519C15.919,13.207,16,12.863,16,12.5c0-0.975-0.004-5.039-0.004-5.039c-0.006-0.349-0.084-0.679-0.218-0.979
	L11.529,10L15.779,13.519z"/>
<path d="M0.222,6.482c-0.134,0.3-0.212,0.63-0.218,0.979c0,0-0.004,4.064-0.004,5.039c0,0.363,0.082,0.707,0.221,1.019L4.47,10
	L0.222,6.482z"/>
<rect display="none" opacity="0.2" fill="#E94E47" width="16" height="16"/>
</svg>
