<?xml version="1.0" encoding="utf-8"?>
<!-- Generator: Adobe Illustrator 15.0.0, SVG Export Plug-In  -->
<!DOCTYPE svg PUBLIC "-//W3C//DTD SVG 1.1//EN" "http://www.w3.org/Graphics/SVG/1.1/DTD/svg11.dtd" [
	<!ENTITY ns_flows "http://ns.adobe.com/Flows/1.0/">
]>
<svg version="1.1"
	 xmlns="http://www.w3.org/2000/svg" xmlns:xlink="http://www.w3.org/1999/xlink" xmlns:a="http://ns.adobe.com/AdobeSVGViewerExtensions/3.0/"
	 x="0px" y="0px" width="16px" height="16px" viewBox="0 0.001 16 16" enable-background="new 0 0.001 16 16" xml:space="preserve">
<defs>
</defs>
<path d="M12.707,4.295c-0.474-0.39-3.047-2.411-3.8-3C8.689,1.124,8.456,1.001,8.2,1.001H4.7c-2,0-2.5,1.999-2.5,2.5v9
	c0,2,1.947,2.499,2.5,2.499c0,0,5.989,0,6,0c2,0,2.3-1.946,2.3-2.499v-7.5C13,4.745,12.92,4.471,12.707,4.295z M9.5,14.001
	c0,0-2,0-4,0s-2.5-0.5-2.5-2.5c0,0,0-6.979,0-7c0-2,0.5-2.5,2.5-2.5c1,0,1.5,0,1.5,0s0,2.447,0,3s0.447,1,1,1s4,0,4,0s0,5.473,0,5.5
	C12,13.501,11.5,14.001,9.5,14.001z"/>
<rect display="none" opacity="0.2" fill="#E94E47" width="16" height="16"/>
</svg>
