<?xml version="1.0" encoding="utf-8"?>
<!-- Generator: Adobe Illustrator 15.0.0, SVG Export Plug-In  -->
<!DOCTYPE svg PUBLIC "-//W3C//DTD SVG 1.1//EN" "http://www.w3.org/Graphics/SVG/1.1/DTD/svg11.dtd" [
	<!ENTITY ns_flows "http://ns.adobe.com/Flows/1.0/">
]>
<svg version="1.1"
	 xmlns="http://www.w3.org/2000/svg" xmlns:xlink="http://www.w3.org/1999/xlink" xmlns:a="http://ns.adobe.com/AdobeSVGViewerExtensions/3.0/"
	 x="0px" y="0px" width="16px" height="16px" viewBox="0 0.001 16 16" enable-background="new 0 0.001 16 16" xml:space="preserve">
<defs>
</defs>
<g>
	<path d="M7,11c0,0.55-0.45,1-1,1H5c-0.55,0-1-0.45-1-1V5c0-0.55,0.45-1,1-1h1c0.55,0,1,0.45,1,1V11z"/>
</g>
<g>
	<path d="M12,11c0,0.55-0.45,1-1,1h-1c-0.55,0-1-0.45-1-1V5c0-0.55,0.45-1,1-1h1c0.55,0,1,0.45,1,1V11z"/>
</g>
<rect display="none" opacity="0.2" fill="#E94E47" width="16" height="16"/>
</svg>
