<?xml version="1.0" encoding="utf-8"?>
<!-- Generator: Adobe Illustrator 15.0.0, SVG Export Plug-In  -->
<!DOCTYPE svg PUBLIC "-//W3C//DTD SVG 1.1//EN" "http://www.w3.org/Graphics/SVG/1.1/DTD/svg11.dtd" [
	<!ENTITY ns_flows "http://ns.adobe.com/Flows/1.0/">
]>
<svg version="1.1"
	 xmlns="http://www.w3.org/2000/svg" xmlns:xlink="http://www.w3.org/1999/xlink" xmlns:a="http://ns.adobe.com/AdobeSVGViewerExtensions/3.0/"
	 x="0px" y="0px" width="16px" height="16px" viewBox="0 0.001 16 16" enable-background="new 0 0.001 16 16" xml:space="preserve">
<defs>
</defs>
<path d="M13,5h-1v2H3V5H2C1.447,5,1,5.447,1,6v6c0,0.553,0.447,1,1,1h1v-3h9v3h1c0.553,0,1-0.447,1-1V6C14,5.447,13.553,5,13,5z"/>
<polyline points="11,11 11,14 4,14 4,11 11,11 "/>
<polyline points="11,1 11,6 4,6 4,1 11,1 "/>
<rect display="none" opacity="0.2" fill="#E94E47" width="16" height="16"/>
</svg>
