<?xml version="1.0" encoding="utf-8"?>
<!-- Generator: Adobe Illustrator 15.0.0, SVG Export Plug-In  -->
<!DOCTYPE svg PUBLIC "-//W3C//DTD SVG 1.1//EN" "http://www.w3.org/Graphics/SVG/1.1/DTD/svg11.dtd" [
	<!ENTITY ns_flows "http://ns.adobe.com/Flows/1.0/">
]>
<svg version="1.1"
	 xmlns="http://www.w3.org/2000/svg" xmlns:xlink="http://www.w3.org/1999/xlink" xmlns:a="http://ns.adobe.com/AdobeSVGViewerExtensions/3.0/"
	 x="0px" y="0px" width="16px" height="16px" viewBox="0 0.001 16 16" enable-background="new 0 0.001 16 16" xml:space="preserve">
<defs>
</defs>
<path d="M12.875,1.001c0,0-7.854-0.001-8.484-0.001C3.285,1,2,2.416,2,3.521c0,0.402,0,9.413,0,9.679C2,14.304,2.791,15,3.896,15
	c0.129,0,7.777,0,8.18,0C13.182,15,14,14.304,14,13.199C14,12.929,14,4,14,4L12.875,1.001z M12,12.796
	C12,13.083,11.793,13,11.538,13H4.463C4.208,13,4,13.083,4,12.796V8.41C4,8.122,4.208,8,4.463,8h7.075C11.793,8,12,8.122,12,8.41
	V12.796z"/>
<g>
	<path fill="#FFFFFF" d="M11,2.001H9H6H5v1V5v1h1h3h2c0.55,0,1-0.45,1-1V3.001C12,2.451,11.55,2.001,11,2.001z"/>
</g>
<rect x="10" y="3" width="1" height="2"/>
<rect display="none" opacity="0.2" fill="#E94E47" width="16" height="16"/>
</svg>
