<?xml version="1.0" encoding="utf-8"?>
<!-- Generator: Adobe Illustrator 15.0.0, SVG Export Plug-In  -->
<!DOCTYPE svg PUBLIC "-//W3C//DTD SVG 1.1//EN" "http://www.w3.org/Graphics/SVG/1.1/DTD/svg11.dtd" [
	<!ENTITY ns_flows "http://ns.adobe.com/Flows/1.0/">
]>
<svg version="1.1"
	 xmlns="http://www.w3.org/2000/svg" xmlns:xlink="http://www.w3.org/1999/xlink" xmlns:a="http://ns.adobe.com/AdobeSVGViewerExtensions/3.0/"
	 x="0px" y="0px" width="16px" height="16px" viewBox="0 0.001 16 16" enable-background="new 0 0.001 16 16" xml:space="preserve">
<defs>
</defs>
<path d="M12.947,9.298c0.037-0.14,0.163-0.236,0.308-0.236H15V6.937h-1.745c-0.145,0-0.271-0.096-0.308-0.234
	c-0.118-0.453-0.296-0.885-0.53-1.285c-0.072-0.123-0.053-0.279,0.049-0.383L13.699,3.8L12.2,2.3l-1.234,1.233
	c-0.104,0.103-0.262,0.12-0.385,0.048c-0.398-0.232-0.832-0.41-1.284-0.529C9.159,3.017,9.061,2.89,9.061,2.745V1H6.938v1.745
	c0,0.145-0.096,0.271-0.236,0.307C6.25,3.171,5.82,3.349,5.418,3.581C5.295,3.653,5.137,3.636,5.035,3.533L3.801,2.3L2.3,3.8
	l1.235,1.234c0.102,0.104,0.123,0.26,0.049,0.383c-0.234,0.4-0.41,0.832-0.531,1.285C3.015,6.841,2.892,6.937,2.744,6.937H1v2.125
	h1.744c0.147,0,0.271,0.097,0.309,0.236c0.121,0.451,0.297,0.883,0.531,1.282c0.074,0.124,0.053,0.28-0.049,0.386L2.3,12.198
	L3.801,13.7l1.234-1.234c0.102-0.104,0.26-0.123,0.383-0.05c0.402,0.234,0.832,0.411,1.284,0.531
	c0.141,0.036,0.236,0.161,0.236,0.306v1.745h2.122v-1.745c0-0.145,0.099-0.27,0.236-0.306c0.452-0.12,0.886-0.298,1.284-0.531
	c0.123-0.073,0.281-0.053,0.385,0.05L12.2,13.7l1.499-1.502l-1.233-1.232c-0.102-0.105-0.121-0.262-0.049-0.386
	C12.651,10.181,12.829,9.749,12.947,9.298z M8,10.58c-1.425,0-2.581-1.155-2.581-2.58c0-1.426,1.156-2.583,2.581-2.583
	c1.427,0,2.582,1.157,2.582,2.583C10.582,9.425,9.427,10.58,8,10.58z"/>
<rect display="none" opacity="0.2" fill="#E94E47" width="16" height="16"/>
</svg>
