<?xml version="1.0" encoding="utf-8"?>
<!-- Generator: Adobe Illustrator 15.0.0, SVG Export Plug-In  -->
<!DOCTYPE svg PUBLIC "-//W3C//DTD SVG 1.1//EN" "http://www.w3.org/Graphics/SVG/1.1/DTD/svg11.dtd" [
	<!ENTITY ns_flows "http://ns.adobe.com/Flows/1.0/">
]>
<svg version="1.1"
	 xmlns="http://www.w3.org/2000/svg" xmlns:xlink="http://www.w3.org/1999/xlink" xmlns:a="http://ns.adobe.com/AdobeSVGViewerExtensions/3.0/"
	 x="0px" y="0px" width="16px" height="16px" viewBox="0 0.001 16 16" enable-background="new 0 0.001 16 16" xml:space="preserve">
<defs>
</defs>
<polyline fill="none" stroke="#333333" stroke-width="1.4173" stroke-miterlimit="10" points="12.5,3.001 3,8.001 12.5,13.001 "/>
<path d="M15.9,3c0,1.65-1.328,3-2.95,3C11.328,6,10,4.65,10,3s1.328-3,2.95-3C14.572,0,15.9,1.35,15.9,3z"/>
<path d="M15.9,13c0,1.65-1.328,3-2.95,3C11.328,16,10,14.65,10,13s1.328-3,2.95-3C14.572,10,15.9,11.35,15.9,13z"/>
<path d="M6,8c0,1.65-1.35,3-3,3S0,9.65,0,8s1.35-3,3-3S6,6.35,6,8z"/>
<rect display="none" opacity="0.2" fill="#E94E47" width="16" height="16"/>
</svg>
