<?xml version="1.0" encoding="utf-8"?>
<!-- Generator: Adobe Illustrator 15.0.0, SVG Export Plug-In  -->
<!DOCTYPE svg PUBLIC "-//W3C//DTD SVG 1.1//EN" "http://www.w3.org/Graphics/SVG/1.1/DTD/svg11.dtd" [
	<!ENTITY ns_flows "http://ns.adobe.com/Flows/1.0/">
]>
<svg version="1.1"
	 xmlns="http://www.w3.org/2000/svg" xmlns:xlink="http://www.w3.org/1999/xlink" xmlns:a="http://ns.adobe.com/AdobeSVGViewerExtensions/3.0/"
	 x="0px" y="0px" width="16px" height="16px" viewBox="0 0.001 16 16" enable-background="new 0 0.001 16 16" xml:space="preserve">
<defs>
</defs>
<path d="M5.704,8.212C5.715,8.22,5.729,8.226,5.741,8.233c0.211,0.119,0.426,0.227,0.655,0.312c0.079,0.03,0.163,0.048,0.243,0.074
	c0.174,0.054,0.346,0.113,0.528,0.146c0.278,0.054,0.563,0.084,0.858,0.084c0.293,0,0.58-0.03,0.857-0.084
	c0.184-0.033,0.354-0.093,0.529-0.146c0.08-0.027,0.165-0.044,0.244-0.074c0.228-0.085,0.442-0.192,0.653-0.312
	c0.012-0.007,0.025-0.013,0.037-0.021c0.225-0.129,0.433-0.277,0.629-0.441c0,0,0,0,0-0.001c0.977-0.811,1.606-2,1.606-3.345
	c0-2.443-2.039-4.424-4.557-4.424c-2.517,0-4.557,1.98-4.557,4.424C3.469,6.041,4.372,7.441,5.704,8.212z"/>
<path d="M15,10.637c-0.114-0.921-0.434-1.792-1.315-2.654c-1.383,2.13-3.404,3.483-5.659,3.483S3.75,10.114,2.368,7.984
	C1.32,9.009,1.056,10.095,1,11.25v1.996c0,0.551,0,1.224,0,1.224C1,15.059,1.995,16,2.557,16h3.077c0.001,0,0.003,0,0.003,0
	c0.616,0,1.303,0,2.389,0c1.087,0,1.771,0,2.389,0h0.003h3.108c0.463,0,1.273-0.758,1.474-1.325V10.637z"/>
<rect display="none" opacity="0.2" fill="#E94E47" width="16" height="16"/>
</svg>
